# xmcd CD database file
#
# Track frame offsets:
#	150
#	17686
#	35447
#	53544
#	71601
#	87857
#	105770
#	122374
#	143628
#	160581
#	172155
#	200875
#	222628
#	239420
#	256645
#	272545
#	293381
#	308425
#	323351
#	339863
#
# Disc length: 4691 seconds
#
# Revision: 0
# Processed by: cddbd v1.5.2PL0 Copyright (c) Steve Scherf et al.
# Submitted via: CDex 1.51
#
DISCID=00125114
DTITLE=The Real Book Play-Along - Volume II
DYEAR=2010
DGENRE=Jazz
TTITLE0=Adam's Apple
TTITLE1=Air Mail Special
TTITLE2=Alfie's Theme
TTITLE3=All Of A Sudden (My Heart Sings)
TTITLE4=Are You Havin' Any Fun?
TTITLE5=Azure
TTITLE6=Baby, It's Cold Outside
TTITLE7=Bags And Trane
TTITLE8=Bags' Groove
TTITLE9=Bali Ha'i
TTITLE10=A Ballad
TTITLE11=Baltimore Oriole
TTITLE12=Barbados
TTITLE13=Basin Street Blues
TTITLE14=Be-Bop
TTITLE15=Beyond The Sea
TTITLE16=Billie's Bounce (Bill's Bounce)
TTITLE17=Bird Feathers
TTITLE18=Birdland
TTITLE19=Birk's Works
EXTD=YEAR: 2010
EXTT0=
EXTT1=
EXTT2=
EXTT3=
EXTT4=
EXTT5=
EXTT6=
EXTT7=
EXTT8=
EXTT9=
EXTT10=
EXTT11=
EXTT12=
EXTT13=
EXTT14=
EXTT15=
EXTT16=
EXTT17=
EXTT18=
EXTT19=
PLAYORDER=
